<svg width="20" height="20" viewBox="0 0 20 20" fill="none" xmlns="http://www.w3.org/2000/svg">
<rect width="20" height="20" fill="#942446"/>
<path d="M3.19305 12.3564H7.09846M7.09846 12.3564H9.88803C8.87349 8.91988 6.75201 8.06779 4.58784 7.32979M7.09846 12.3564C6.46218 10.9013 5.56159 10.2525 3.47201 9.56383" stroke="#FEFEFE"/>
<path d="M16.583 12.3564H12.6776M12.6776 12.3564H9.88804C10.9026 8.91988 13.0241 8.06779 15.1882 7.32979M12.6776 12.3564C13.3139 10.9013 14.2145 10.2525 16.3041 9.56383" stroke="#FEFEFE"/>
<path d="M9.88802 6.77144C9.88802 7.0506 7.09845 10.1224 7.09845 12.3564" stroke="#FEFEFE"/>
<path d="M9.88802 6.77127C9.88802 7.05043 12.6776 10.1222 12.6776 12.3563" stroke="#FEFEFE"/>
</svg>
